<?xml version="1.0" encoding="utf-8"?>
<!-- Generator: Adobe Illustrator 25.2.0, SVG Export Plug-In . SVG Version: 6.00 Build 0)  -->
<svg version="1.0" id="Layer_1" xmlns="http://www.w3.org/2000/svg" xmlns:xlink="http://www.w3.org/1999/xlink" x="0px" y="0px"
	 viewBox="0 0 1024 768" style="enable-background:new 0 0 1024 768;" xml:space="preserve">
<style type="text/css">
	.st0{fill:#4D4D4F;stroke:#333333;stroke-miterlimit:10;}
	.st1{fill:#F7941F;stroke:#CC6600;stroke-miterlimit:10;}
	.st2{fill:#F7941F;stroke:#F68603;stroke-miterlimit:10;}
</style>
<g>
	<path class="st0" d="M585.6,532.2c9.9-4.4,19.7-9,29.2-13.7c-18.5,9.9-37.7,19.4-57.5,28.3c-215.9,96.6-429.1,89.7-476.1-15.4
		c-9.9-22.1-11.6-46.7-6.2-72.8h37.5c-3.7,22.5-1.7,43.7,6.9,62.9C164.5,622.4,373.2,627.2,585.6,532.2z"/>
	<path class="st0" d="M193.9,320.3h-35.3c55.4-57.1,134.5-111.9,228.6-154c111.1-49.7,221.4-72,308.8-67.6
		c-80.3,2.1-176.7,24.6-273.8,68.1C327.9,208.9,248.8,263.6,193.9,320.3z"/>
	<path class="st1" d="M772.2,458.6h66.1c-54.7,52-126.9,100.7-212.1,139.8c-191.5,87.8-380.5,94.3-463.4,21.7
		c84.1,53.2,249.9,42.7,417.8-36.8C656.8,547.2,722.1,504.3,772.2,458.6z"/>
	<path class="st1" d="M937.7,320.3h-66.4c12.6-36.6,13.7-72.7,1.3-106.5c-28.8-71.2-152.2-133.6-359.3-48.1
		c-5.4,2.2-10.6,5.1-15.8,7.7c16.5-8.9,33.6-17.4,51.3-25.5c134.4-61.7,355.7-61,396.1,58.7C956.6,241.1,953.5,280,937.7,320.3z"/>
	<g>
		<path class="st2" d="M78.1,448.6V323.7h44.6c11.2,0,19.3,1.1,24.4,3.4c5.1,2.2,9.1,6.2,12.2,12c3.1,5.7,4.6,12.3,4.6,19.7
			c0,9.4-2.3,17.1-6.9,23.2c-4.6,6.1-11.5,10-20.7,11.5c4.6,3.2,8.4,6.7,11.3,10.5c3,3.8,7,10.6,12,20.3l12.8,24.4H147l-15.3-27.2
			c-5.4-9.7-9.2-15.8-11.2-18.4c-2-2.5-4.1-4.3-6.4-5.2c-2.2-0.9-5.8-1.4-10.7-1.4h-4.3v52.1H78.1z M99.2,376.6h15.7
			c10.2,0,16.5-0.5,19-1.5c2.5-1,4.5-2.8,5.9-5.3c1.4-2.5,2.1-5.6,2.1-9.4c0-4.2-0.9-7.6-2.8-10.2c-1.9-2.6-4.5-4.2-8-4.9
			c-1.7-0.3-6.9-0.4-15.4-0.4H99.2V376.6z"/>
		<path class="st2" d="M198.7,391.5l-18.8-3.6c2.1-8,5.7-13.8,10.9-17.7c5.2-3.8,12.8-5.7,23-5.7c9.2,0,16.1,1.1,20.6,3.4
			c4.5,2.3,7.7,5.2,9.5,8.8c1.8,3.5,2.8,10,2.8,19.5l-0.2,25.4c0,7.2,0.3,12.6,1,16c0.7,3.4,1.9,7.1,3.7,11h-20.5
			c-0.5-1.4-1.2-3.6-2-6.4c-0.3-1.3-0.6-2.1-0.7-2.6c-3.5,3.6-7.3,6.3-11.3,8.1c-4,1.8-8.3,2.7-12.9,2.7c-8.1,0-14.4-2.3-19-6.9
			c-4.6-4.6-7-10.4-7-17.4c0-4.6,1.1-8.8,3.2-12.4c2.1-3.6,5.1-6.4,8.9-8.4c3.8-1.9,9.3-3.6,16.5-5.1c9.7-1.9,16.4-3.7,20.1-5.3
			v-2.2c0-4.2-1-7.2-2.9-8.9c-2-1.8-5.7-2.7-11.1-2.7c-3.7,0-6.6,0.8-8.6,2.3C201.6,385,199.9,387.7,198.7,391.5z M226.4,409.1
			c-2.7,0.9-6.8,2-12.6,3.3c-5.7,1.3-9.5,2.6-11.3,3.8c-2.7,2-4.1,4.6-4.1,7.7c0,3,1.1,5.7,3.2,7.9c2.2,2.2,4.9,3.3,8.2,3.3
			c3.7,0,7.3-1.3,10.7-3.9c2.5-2,4.1-4.4,4.9-7.2c0.5-1.9,0.8-5.4,0.8-10.6V409.1z"/>
		<path class="st2" d="M384,448.6h-20.7v-42c0-8.9-0.4-14.6-1.3-17.2c-0.9-2.6-2.3-4.6-4.3-6.1c-2-1.4-4.4-2.2-7.2-2.2
			c-3.6,0-6.8,1-9.6,3.1c-2.8,2.1-4.8,4.8-5.9,8.2c-1.1,3.4-1.6,9.7-1.6,18.9v37.3h-20.7v-82.3h19.2v12.1
			c6.8-9.3,15.4-13.9,25.8-13.9c4.6,0,8.7,0.9,12.5,2.6c3.8,1.7,6.6,3.9,8.6,6.6c1.9,2.7,3.3,5.7,4.1,9.1c0.8,3.4,1.1,8.3,1.1,14.6
			V448.6z"/>
		<path class="st2" d="M415.2,391.5l-18.8-3.6c2.1-8,5.7-13.8,10.9-17.7c5.2-3.8,12.8-5.7,23-5.7c9.2,0,16.1,1.1,20.6,3.4
			c4.5,2.3,7.7,5.2,9.5,8.8c1.8,3.5,2.8,10,2.8,19.5l-0.2,25.4c0,7.2,0.3,12.6,1,16c0.7,3.4,1.9,7.1,3.7,11h-20.5
			c-0.5-1.4-1.2-3.6-2-6.4c-0.3-1.3-0.6-2.1-0.7-2.6c-3.5,3.6-7.3,6.3-11.3,8.1c-4,1.8-8.3,2.7-12.9,2.7c-8.1,0-14.4-2.3-19-6.9
			c-4.6-4.6-7-10.4-7-17.4c0-4.6,1.1-8.8,3.2-12.4c2.1-3.6,5.1-6.4,8.9-8.4c3.8-1.9,9.3-3.6,16.5-5.1c9.7-1.9,16.4-3.7,20.1-5.3
			v-2.2c0-4.2-1-7.2-2.9-8.9c-2-1.8-5.7-2.7-11.1-2.7c-3.7,0-6.6,0.8-8.6,2.3C418.2,385,416.5,387.7,415.2,391.5z M442.9,409.1
			c-2.7,0.9-6.8,2-12.6,3.3c-5.7,1.3-9.5,2.6-11.3,3.8c-2.7,2-4.1,4.6-4.1,7.7c0,3,1.1,5.7,3.2,7.9c2.2,2.2,4.9,3.3,8.2,3.3
			c3.7,0,7.3-1.3,10.7-3.9c2.5-2,4.1-4.4,4.9-7.2c0.5-1.9,0.8-5.4,0.8-10.6V409.1z"/>
		<path class="st0" d="M565.5,402.7v-21h47v49.8c-4.6,5.1-11.2,9.6-19.8,13.5c-8.7,3.9-17.4,5.8-26.3,5.8c-11.3,0-21.1-2.7-29.5-8.2
			c-8.4-5.5-14.7-13.3-18.9-23.5c-4.2-10.2-6.3-21.3-6.3-33.3c0-13,2.4-24.6,7.1-34.7c4.7-10.1,11.6-17.9,20.7-23.3
			c6.9-4.1,15.5-6.2,25.9-6.2c13.4,0,23.9,3.3,31.4,9.8c7.5,6.5,12.4,15.5,14.5,27l-21.7,4.7c-1.5-6.1-4.4-11-8.6-14.5
			c-4.2-3.5-9.4-5.3-15.7-5.3c-9.5,0-17.1,3.5-22.7,10.5c-5.6,7-8.4,17.4-8.4,31.1c0,14.8,2.8,25.9,8.5,33.4
			c5.7,7.4,13.2,11.1,22.4,11.1c4.6,0,9.1-1,13.7-3.1c4.6-2.1,8.5-4.6,11.8-7.5v-15.8H565.5z"/>
		<path class="st0" d="M631.6,448.6V335.1h20.7v113.5H631.6z"/>
		<path class="st0" d="M661.9,406.3c0-7.2,1.7-14.2,5.1-21c3.4-6.8,8.2-11.9,14.4-15.5c6.2-3.6,13.1-5.3,20.8-5.3
			c11.8,0,21.5,4,29.1,12.1c7.6,8.1,11.3,18.3,11.3,30.6c0,12.4-3.8,22.8-11.5,30.9c-7.6,8.2-17.2,12.3-28.8,12.3
			c-7.2,0-14-1.7-20.5-5.1c-6.5-3.4-11.5-8.4-14.8-15C663.6,423.8,661.9,415.8,661.9,406.3z M683.1,407.5c0,8.2,1.8,14.4,5.5,18.7
			c3.7,4.3,8.2,6.5,13.6,6.5c5.4,0,9.9-2.2,13.6-6.5s5.5-10.6,5.5-18.9c0-8.1-1.8-14.3-5.5-18.6c-3.7-4.3-8.2-6.5-13.6-6.5
			c-5.4,0-9.9,2.2-13.6,6.5C685,393.1,683.1,399.4,683.1,407.5z"/>
		<path class="st0" d="M751.2,448.6V335.1h20.7V376c6.4-7.6,13.9-11.5,22.7-11.5c9.5,0,17.4,3.6,23.6,10.9
			c6.2,7.3,9.4,17.7,9.4,31.3c0,14-3.2,24.9-9.5,32.5c-6.4,7.6-14.1,11.4-23.2,11.4c-4.5,0-8.9-1.2-13.2-3.5
			c-4.3-2.3-8.1-5.8-11.2-10.4v12.1H751.2z M771.7,405.7c0,8.5,1.3,14.8,3.8,18.9c3.6,5.8,8.3,8.7,14.3,8.7c4.6,0,8.5-2.1,11.7-6.2
			c3.2-4.1,4.8-10.6,4.8-19.4c0-9.4-1.6-16.2-4.9-20.3c-3.2-4.2-7.4-6.2-12.4-6.2c-5,0-9.1,2-12.4,6.1
			C773.3,391.3,771.7,397.5,771.7,405.7z"/>
		<path class="st0" d="M852.8,391.5l-18.8-3.6c2.1-8,5.7-13.8,10.9-17.7c5.2-3.8,12.8-5.7,23-5.7c9.2,0,16.1,1.1,20.6,3.4
			c4.5,2.3,7.7,5.2,9.5,8.8c1.8,3.5,2.8,10,2.8,19.5l-0.2,25.4c0,7.2,0.3,12.6,1,16c0.7,3.4,1.9,7.1,3.7,11h-20.5
			c-0.5-1.4-1.2-3.6-2-6.4c-0.3-1.3-0.6-2.1-0.7-2.6c-3.5,3.6-7.3,6.3-11.3,8.1c-4,1.8-8.3,2.7-12.9,2.7c-8.1,0-14.4-2.3-19-6.9
			c-4.6-4.6-7-10.4-7-17.4c0-4.6,1.1-8.8,3.2-12.4c2.1-3.6,5.1-6.4,8.9-8.4c3.8-1.9,9.3-3.6,16.5-5.1c9.7-1.9,16.4-3.7,20.1-5.3
			v-2.2c0-4.2-1-7.2-2.9-8.9c-2-1.8-5.7-2.7-11.1-2.7c-3.7,0-6.6,0.8-8.6,2.3C855.8,385,854.1,387.7,852.8,391.5z M880.5,409.1
			c-2.7,0.9-6.8,2-12.6,3.3c-5.7,1.3-9.5,2.6-11.3,3.8c-2.7,2-4.1,4.6-4.1,7.7c0,3,1.1,5.7,3.2,7.9c2.2,2.2,4.9,3.3,8.2,3.3
			c3.7,0,7.3-1.3,10.7-3.9c2.5-2,4.1-4.4,4.9-7.2c0.5-1.9,0.8-5.4,0.8-10.6V409.1z"/>
		<path class="st0" d="M914.5,448.6V335.1h20.7v113.5H914.5z"/>
		<path class="st2" d="M293.8,432.5c-1.4,0-2.5-0.4-3.5-1.1c-1-0.7-1.6-1.6-1.8-2.7c-0.3-1.1-0.4-5-0.4-11.7v-33.1h14.1v-17.3h-14.1
			v-22.3h-20.8v22.3h-9.5v17.3h9.5v35.9c0,7.7,0.2,12.8,0.7,15.3c0.5,3.6,1.5,6.4,2.9,8.5c1.4,2.1,3.6,3.8,6.6,5.1
			c3,1.3,6.4,2,10.1,2c6.1,0,11.5-1.1,16.4-3.3l-1.8-16.9C298.5,431.8,295.7,432.5,293.8,432.5z"/>
	</g>
</g>
</svg>
