<svg width="80" height="81" viewBox="0 0 80 81" fill="none" xmlns="http://www.w3.org/2000/svg">
<mask id="mask0_528_1536" style="mask-type:alpha" maskUnits="userSpaceOnUse" x="0" y="0" width="80" height="81">
<rect y="0.0163574" width="80" height="80" fill="#D9D9D9"/>
</mask>
<g mask="url(#mask0_528_1536)">
<path d="M33.1012 65.275C31.0933 65.275 29.3367 64.678 27.8317 63.484C26.3248 62.2901 25.2877 60.7763 24.7202 58.9427C24.1964 59.7955 23.4657 60.4462 22.5281 60.8948C21.5887 61.3417 20.5952 61.5651 19.5476 61.5651C17.7143 61.5651 16.1647 60.9468 14.8988 59.7102C13.6329 58.4736 13 56.9598 13 55.1688C13 53.5911 13.557 52.1626 14.671 50.8833C15.7832 49.604 17.2123 48.9431 18.9583 48.9004C18.0417 48.1329 17.3328 47.1948 16.8317 46.0861C16.3288 44.9774 16.0774 43.826 16.0774 42.6321C16.0774 41.2249 16.4266 39.8919 17.125 38.6331C17.8234 37.376 18.8274 36.3637 20.1369 35.5961C20.2242 35.9373 20.377 36.3313 20.5952 36.7782C20.8135 37.2268 21.0317 37.6216 21.25 37.9628C20.4206 38.5597 19.799 39.2744 19.3852 40.1068C18.9697 40.9375 18.7619 41.8005 18.7619 42.696C18.7619 45.3398 19.7659 47.0455 21.7738 47.8131C23.7817 48.5806 25.8552 49.1776 27.994 49.604L28.5833 50.6275C28.1032 51.992 27.7103 53.1433 27.4048 54.0815C27.0992 55.0196 26.9464 55.8938 26.9464 56.704C26.9464 58.2817 27.5357 59.6676 28.7143 60.8616C29.8929 62.0555 31.3333 62.6525 33.0357 62.6525C34.9127 62.6525 36.4405 61.9703 37.619 60.6057C38.7976 59.2412 39.7693 57.6208 40.534 55.7445C41.2971 53.8683 41.8968 51.928 42.3333 49.9239C42.7698 47.9197 43.119 46.2993 43.381 45.0627L46 45.7663C45.6508 47.4293 45.2256 49.3908 44.7245 51.6509C44.2217 53.9109 43.5014 56.043 42.5638 58.0472C41.6244 60.0514 40.4013 61.757 38.8945 63.1642C37.3894 64.5714 35.4583 65.275 33.1012 65.275ZM19.5476 59.0066C20.6389 59.0066 21.566 58.6331 22.329 57.886C23.0938 57.1406 23.4762 56.2349 23.4762 55.1688C23.4762 54.1454 23.0938 53.2499 22.329 52.4824C21.566 51.7148 20.6389 51.331 19.5476 51.331C18.4563 51.331 17.5292 51.7148 16.7662 52.4824C16.0014 53.2499 15.619 54.1454 15.619 55.1688C15.619 56.2349 16.0014 57.1406 16.7662 57.886C17.5292 58.6331 18.4563 59.0066 19.5476 59.0066ZM35.4583 48.4527C33.7123 46.9176 32.0972 45.4789 30.6131 44.1365C29.129 42.7924 27.8526 41.4696 26.784 40.1682C25.7137 38.8685 24.8948 37.5687 24.3274 36.269C23.7599 34.9676 23.4762 33.6133 23.4762 32.2061C23.4762 29.7755 24.3169 27.7389 25.9983 26.0963C27.678 24.4555 29.7619 23.635 32.25 23.635C32.7302 23.635 33.1562 23.6674 33.5281 23.7322C33.8983 23.7954 34.2579 23.8696 34.6071 23.9548C34.4325 23.5711 34.2798 23.166 34.1488 22.7395C34.0179 22.3131 33.9524 21.8654 33.9524 21.3963C33.9524 19.648 34.5853 18.1444 35.8512 16.8856C37.1171 15.6285 38.6667 15 40.5 15C42.3333 15 43.8829 15.6285 45.1488 16.8856C46.4147 18.1444 47.0476 19.648 47.0476 21.3963C47.0476 21.8654 46.9821 22.302 46.8512 22.7063C46.7202 23.1122 46.5675 23.5284 46.3929 23.9548C46.7421 23.8269 47.1026 23.7416 47.4745 23.699C47.8447 23.6563 48.2698 23.635 48.75 23.635C50.7143 23.635 52.4385 24.1894 53.9226 25.2981C55.4067 26.4068 56.4325 27.8139 57 29.5196C56.5635 29.4343 56.0947 29.3917 55.5936 29.3917C55.0907 29.3917 54.621 29.413 54.1845 29.4557C53.7044 28.4749 52.9841 27.686 52.0238 27.089C51.0635 26.492 49.9722 26.1935 48.75 26.1935C47.1349 26.1935 45.8367 26.6089 44.8555 27.4395C43.8725 28.2719 42.6171 29.5623 41.0893 31.3106H39.8452C38.2738 29.477 36.9975 28.1653 36.0162 27.3756C35.0332 26.5876 33.7778 26.1935 32.25 26.1935C30.4603 26.1935 28.9867 26.759 27.829 27.8898C26.6732 29.019 26.0952 30.4578 26.0952 32.2061C26.0952 33.1868 26.3571 34.2103 26.881 35.2763C27.4048 36.3424 28.1468 37.4613 29.1071 38.6331C30.0675 39.8066 31.246 41.0543 32.6429 42.3762C34.0397 43.6981 35.6111 45.1266 37.3571 46.6617L35.4583 48.4527ZM40.5 25.2341C41.5913 25.2341 42.5184 24.8614 43.2814 24.116C44.0462 23.3689 44.4286 22.4624 44.4286 21.3963C44.4286 20.3729 44.0462 19.4774 43.2814 18.7099C42.5184 17.9423 41.5913 17.5585 40.5 17.5585C39.4087 17.5585 38.4816 17.9423 37.7186 18.7099C36.9538 19.4774 36.5714 20.3729 36.5714 21.3963C36.5714 22.4624 36.9538 23.3689 37.7186 24.116C38.4816 24.8614 39.4087 25.2341 40.5 25.2341ZM47.7679 65.339C47.1131 65.339 46.4802 65.2648 45.869 65.1164C45.2579 64.9663 44.6905 64.7633 44.1667 64.5075C44.3849 64.209 44.6145 63.8465 44.8555 63.4201C45.0947 62.9937 45.3234 62.6099 45.5417 62.2687C45.9345 62.4393 46.3169 62.557 46.6888 62.6218C47.059 62.6849 47.4405 62.7165 47.8333 62.7165C49.5357 62.7165 50.998 62.1195 52.2202 60.9255C53.4425 59.7315 54.0536 58.303 54.0536 56.64C54.0536 55.8724 53.9008 55.0196 53.5952 54.0815C53.2897 53.1433 52.8968 51.992 52.4167 50.6275L53.0714 49.604C55.2103 49.2203 57.2733 48.6335 59.2602 47.8438C61.2455 47.0558 62.2381 45.3398 62.2381 42.696C62.2381 40.6066 61.496 39.0715 60.0119 38.0907C58.5278 37.1099 56.8472 36.6195 54.9702 36.6195C53.2242 36.6195 51.184 36.9069 48.8495 37.4818C46.5133 38.0583 43.7956 38.8369 40.6964 39.8177L39.9762 37.3231C42.9881 36.385 45.6944 35.585 48.0952 34.9232C50.496 34.2631 52.7004 33.9331 54.7083 33.9331C57.371 33.9331 59.7282 34.6896 61.7798 36.2025C63.8313 37.7171 64.8571 39.8817 64.8571 42.696C64.8571 43.89 64.6171 45.0098 64.1369 46.0554C63.6567 47.0993 62.9583 48.0476 62.0417 48.9004C63.7877 48.9857 65.2177 49.6569 66.3317 50.914C67.4439 52.1728 68 53.5911 68 55.1688C68 56.9172 67.3671 58.4199 66.1012 59.677C64.8353 60.9357 63.2857 61.5651 61.4524 61.5651C60.4048 61.5651 59.4121 61.3417 58.4745 60.8948C57.5352 60.4462 56.8036 59.7955 56.2798 58.9427C55.7123 60.7763 54.6647 62.3012 53.1369 63.5173C51.6091 64.7318 49.8194 65.339 47.7679 65.339ZM61.5179 59.0066C62.6091 59.0066 63.5258 58.6331 64.2679 57.886C65.0099 57.1406 65.381 56.2349 65.381 55.1688C65.381 54.1454 64.9986 53.2397 64.2338 52.4517C63.4708 51.6619 62.5436 51.2671 61.4524 51.2671C60.3611 51.2671 59.434 51.6509 58.671 52.4184C57.9062 53.186 57.5238 54.0815 57.5238 55.1049C57.5238 56.1709 57.9167 57.0877 58.7024 57.8553C59.4881 58.6228 60.4266 59.0066 61.5179 59.0066Z" fill="#2070B4"/>
</g>
</svg>
