<svg width="80" height="81" viewBox="0 0 80 81" fill="none" xmlns="http://www.w3.org/2000/svg">
<mask id="mask0_528_1544" style="mask-type:alpha" maskUnits="userSpaceOnUse" x="0" y="0" width="80" height="81">
<rect y="0.0163574" width="80" height="80" fill="#D9D9D9"/>
</mask>
<g mask="url(#mask0_528_1544)">
<path d="M39.9997 70.433C36.2775 67.3775 32.153 64.9608 27.6263 63.183C23.0975 61.4053 18.333 60.3497 13.333 60.0164V28.8497C18.4441 29.183 23.2919 30.4053 27.8763 32.5164C32.4586 34.6275 36.4997 37.2664 39.9997 40.433C43.4997 37.2664 47.5408 34.6275 52.123 32.5164C56.7075 30.4053 61.5552 29.183 66.6663 28.8497V60.0164C61.6663 60.3497 56.903 61.4053 52.3763 63.183C47.8475 64.9608 43.7219 67.3775 39.9997 70.433ZM39.9997 66.183C43.4997 63.6275 47.2219 61.5719 51.1663 60.0164C55.1108 58.4608 59.1663 57.4053 63.333 56.8497V32.5997C58.9997 33.3219 54.8475 34.7241 50.8763 36.8064C46.903 38.8908 43.2775 41.5719 39.9997 44.8497C36.7219 41.5719 33.0975 38.8908 29.1263 36.8064C25.153 34.7241 20.9997 33.3219 16.6663 32.5997V56.8497C20.833 57.4053 24.8886 58.4608 28.833 60.0164C32.7775 61.5719 36.4997 63.6275 39.9997 66.183ZM39.9997 28.5997C37.0552 28.5997 34.5275 27.5441 32.4163 25.433C30.3052 23.3219 29.2497 20.7941 29.2497 17.8497C29.2497 14.9053 30.3052 12.3775 32.4163 10.2664C34.5275 8.15526 37.0552 7.0997 39.9997 7.0997C42.9441 7.0997 45.4719 8.15526 47.583 10.2664C49.6941 12.3775 50.7497 14.9053 50.7497 17.8497C50.7497 20.7941 49.6941 23.3219 47.583 25.433C45.4719 27.5441 42.9441 28.5997 39.9997 28.5997ZM39.9997 25.2664C42.0552 25.2664 43.8052 24.5441 45.2497 23.0997C46.6941 21.6553 47.4163 19.9053 47.4163 17.8497C47.4163 15.7941 46.6941 14.0441 45.2497 12.5997C43.8052 11.1553 42.0552 10.433 39.9997 10.433C37.9441 10.433 36.1941 11.1553 34.7497 12.5997C33.3052 14.0441 32.583 15.7941 32.583 17.8497C32.583 19.9053 33.3052 21.6553 34.7497 23.0997C36.1941 24.5441 37.9441 25.2664 39.9997 25.2664Z" fill="#2070B4"/>
</g>
</svg>
