<svg width="80" height="81" viewBox="0 0 80 81" fill="none" xmlns="http://www.w3.org/2000/svg">
<path d="M10 46.9196L18.5026 42.7956C23.4707 40.3722 29.0058 40.6273 33.8405 43.5609L47.4447 51.7664C49.0785 52.7442 49.7787 55.2526 49.0451 57.3359C48.3449 59.2916 46.6111 60.2694 45.0106 59.5892L32.8736 54.7849" stroke="#2070B4" stroke-width="3" stroke-miterlimit="10" stroke-linecap="round" stroke-linejoin="round"/>
<path d="M10 68.9003L15.1682 64.3511C18.4359 61.4601 22.6038 60.8649 26.2716 62.693L39.609 69.2829C42.3431 70.6434 45.4441 70.0908 47.7448 67.7949L68.5177 47.43C70.1849 45.8144 70.485 42.7959 69.2179 40.6701C68.0176 38.6719 65.8169 38.2042 64.1831 39.5647L48.3116 52.5744" stroke="#2070B4" stroke-width="3" stroke-miterlimit="10" stroke-linecap="round" stroke-linejoin="round"/>
<path d="M42.1088 32.1669H32.4058C27.6044 32.1669 23.7032 27.1926 23.7365 21.0704C23.7365 14.9482 27.6377 10.0164 32.4392 10.0164H42.1421L42.1088 32.1669Z" stroke="#2070B4" stroke-width="3" stroke-miterlimit="10" stroke-linecap="round" stroke-linejoin="round"/>
<path d="M51.779 32.2097H42.1094L42.1427 10.0592H51.8123C56.6138 10.0592 60.4816 15.0335 60.4816 21.1557C60.4816 24.2169 59.5146 26.9803 57.9475 28.9786C56.347 30.9768 54.1797 32.2097 51.779 32.2097Z" stroke="#2070B4" stroke-width="3" stroke-miterlimit="10" stroke-linecap="round" stroke-linejoin="round"/>
<path d="M39.9074 15.1182C40.3492 15.1182 40.7074 14.6613 40.7074 14.0978C40.7074 13.5342 40.3492 13.0774 39.9074 13.0774C39.4656 13.0774 39.1074 13.5342 39.1074 14.0978C39.1074 14.6613 39.4656 15.1182 39.9074 15.1182Z" fill="#2070B4"/>
<path d="M39.9074 22.048C40.3492 22.048 40.7074 21.5913 40.7074 21.0277C40.7074 20.4642 40.3492 20.0073 39.9074 20.0073C39.4656 20.0073 39.1074 20.4642 39.1074 21.0277C39.1074 21.5913 39.4656 22.048 39.9074 22.048Z" fill="#2070B4"/>
<path d="M39.8723 29.0206C40.3141 29.0206 40.6723 28.5638 40.6723 28.0003C40.6723 27.4368 40.3141 26.9799 39.8723 26.9799C39.4304 26.9799 39.0723 27.4368 39.0723 28.0003C39.0723 28.5638 39.4304 29.0206 39.8723 29.0206Z" fill="#2070B4"/>
<path d="M34.8068 15.1182C35.2487 15.1182 35.6068 14.6613 35.6068 14.0978C35.6068 13.5342 35.2487 13.0774 34.8068 13.0774C34.365 13.0774 34.0068 13.5342 34.0068 14.0978C34.0068 14.6613 34.365 15.1182 34.8068 15.1182Z" fill="#2070B4"/>
<path d="M34.8068 22.048C35.2487 22.048 35.6068 21.5913 35.6068 21.0277C35.6068 20.4642 35.2487 20.0073 34.8068 20.0073C34.365 20.0073 34.0068 20.4642 34.0068 21.0277C34.0068 21.5913 34.365 22.048 34.8068 22.048Z" fill="#2070B4"/>
<path d="M34.8068 29.0206C35.2487 29.0206 35.6068 28.5638 35.6068 28.0003C35.6068 27.4368 35.2487 26.9799 34.8068 26.9799C34.365 26.9799 34.0068 27.4368 34.0068 28.0003C34.0068 28.5638 34.365 29.0206 34.8068 29.0206Z" fill="#2070B4"/>
<path d="M29.7062 15.1182C30.1481 15.1182 30.5062 14.6613 30.5062 14.0978C30.5062 13.5342 30.1481 13.0774 29.7062 13.0774C29.2644 13.0774 28.9062 13.5342 28.9062 14.0978C28.9062 14.6613 29.2644 15.1182 29.7062 15.1182Z" fill="#2070B4"/>
<path d="M29.7062 22.048C30.1481 22.048 30.5062 21.5913 30.5062 21.0277C30.5062 20.4642 30.1481 20.0073 29.7062 20.0073C29.2644 20.0073 28.9062 20.4642 28.9062 21.0277C28.9062 21.5913 29.2644 22.048 29.7062 22.048Z" fill="#2070B4"/>
<path d="M29.7062 28.9781C30.1481 28.9781 30.5062 28.5212 30.5062 27.9577C30.5062 27.3942 30.1481 26.9374 29.7062 26.9374C29.2644 26.9374 28.9062 27.3942 28.9062 27.9577C28.9062 28.5212 29.2644 28.9781 29.7062 28.9781Z" fill="#2070B4"/>
<path d="M37.34 18.5192C37.7819 18.5192 38.14 18.0624 38.14 17.4989C38.14 16.9354 37.7819 16.4785 37.34 16.4785C36.8982 16.4785 36.54 16.9354 36.54 17.4989C36.54 18.0624 36.8982 18.5192 37.34 18.5192Z" fill="#2070B4"/>
<path d="M37.34 25.4493C37.7819 25.4493 38.14 24.9924 38.14 24.4289C38.14 23.8653 37.7819 23.4085 37.34 23.4085C36.8982 23.4085 36.54 23.8653 36.54 24.4289C36.54 24.9924 36.8982 25.4493 37.34 25.4493Z" fill="#2070B4"/>
<path d="M32.2385 18.5192C32.6803 18.5192 33.0385 18.0624 33.0385 17.4989C33.0385 16.9354 32.6803 16.4785 32.2385 16.4785C31.7966 16.4785 31.4385 16.9354 31.4385 17.4989C31.4385 18.0624 31.7966 18.5192 32.2385 18.5192Z" fill="#2070B4"/>
<path d="M32.2385 25.4493C32.6803 25.4493 33.0385 24.9924 33.0385 24.4289C33.0385 23.8653 32.6803 23.4085 32.2385 23.4085C31.7966 23.4085 31.4385 23.8653 31.4385 24.4289C31.4385 24.9924 31.7966 25.4493 32.2385 25.4493Z" fill="#2070B4"/>
<path d="M27.0725 18.5192C27.5143 18.5192 27.8725 18.0624 27.8725 17.4989C27.8725 16.9354 27.5143 16.4785 27.0725 16.4785C26.6306 16.4785 26.2725 16.9354 26.2725 17.4989C26.2725 18.0624 26.6306 18.5192 27.0725 18.5192Z" fill="#2070B4"/>
<path d="M27.0363 25.4493C27.4782 25.4493 27.8363 24.9924 27.8363 24.4289C27.8363 23.8653 27.4782 23.4085 27.0363 23.4085C26.5945 23.4085 26.2363 23.8653 26.2363 24.4289C26.2363 24.9924 26.5945 25.4493 27.0363 25.4493Z" fill="#2070B4"/>
</svg>
