<svg width="80" height="80" viewBox="0 0 80 80" fill="none" xmlns="http://www.w3.org/2000/svg">
<path d="M28.2087 33.9473C26.5227 34.6224 24.9042 34.4199 23.4205 33.5423C21.4648 32.3948 20.9253 30.2347 22.1392 28.5471C22.7461 27.6696 23.6228 27.2646 24.6344 27.2646C25.2414 27.2646 25.5111 26.9945 25.7809 26.4545C26.725 24.3619 28.2087 22.8094 30.5691 22.4043C31.8504 22.2018 33.1318 22.4718 34.4131 23.0119C34.4131 22.8337 34.4319 22.6744 34.4497 22.5239C34.4655 22.3893 34.4806 22.2618 34.4806 22.1343C34.548 20.7168 35.0875 19.5692 36.5037 18.9617C37.8525 18.3542 39.0664 18.6242 40.1455 19.5692C40.2129 19.6367 40.2803 19.6367 40.2129 19.5692C40.4981 19.3876 40.7832 19.2159 41.0646 19.0466C41.5151 18.7753 41.9558 18.51 42.371 18.2192C42.5733 18.0842 42.7082 17.7466 42.7756 17.5441C43.9895 13.6965 46.5522 11.1989 50.4637 10.2538C56.0611 8.97126 61.8609 12.6839 63.1423 18.3542C64.0864 22.3368 62.8725 25.7795 60.1075 28.6821C58.3541 30.5722 56.196 31.9223 53.9705 33.0698C53.2287 33.4748 52.6892 34.0148 52.352 34.7574C52.0278 35.3454 51.7159 35.9457 51.4033 36.5471C50.6753 37.9478 49.9439 39.3551 49.0474 40.6301C47.0917 43.5328 44.3941 45.5578 40.8199 46.1654C38.5269 46.5704 36.234 46.5029 34.0759 45.6254C30.5691 44.3428 28.7482 41.6427 28.2761 37.9975C28.1333 37.0922 28.1585 36.1869 28.1857 35.2104C28.197 34.8035 28.2087 34.3842 28.2087 33.9473ZM37.8525 30.4372C37.7594 30.9031 37.6949 31.3404 37.6326 31.7623C37.5596 32.2573 37.4897 32.7311 37.3805 33.2048C37.2456 33.8123 36.7735 34.0824 36.234 34.0148C35.6945 33.9473 35.4247 33.4748 35.4922 32.7998C35.4922 32.7323 35.509 32.6479 35.5259 32.5635C35.5427 32.4792 35.5596 32.3948 35.5596 32.3273C35.8968 30.5047 35.9642 28.6821 35.2898 26.927C34.0759 23.9569 30.5016 23.4169 28.4785 25.9145C27.9534 26.5568 27.6303 27.3506 27.3343 28.0775C27.2882 28.191 27.2426 28.3028 27.1971 28.4121C26.9274 29.0196 26.5902 29.2896 25.9832 29.2221C25.646 29.1546 25.3088 29.1546 24.9042 29.1546C24.2972 29.1546 23.8252 29.4246 23.6228 30.0322C23.4205 30.6397 23.6228 31.1122 24.2298 31.5847C25.7809 32.7998 27.7366 32.5298 28.7482 30.7747C29.0249 30.2669 29.2701 29.696 29.5053 29.1483C29.6141 28.8951 29.7207 28.6468 29.8273 28.4121C30.097 27.8721 30.5691 27.6021 31.1086 27.8046C31.5807 27.9396 31.8504 28.4796 31.7156 29.0196C31.6818 29.1546 31.6313 29.3065 31.5807 29.4584C31.5301 29.6103 31.4795 29.7622 31.4458 29.8972C30.5691 32.5298 29.9621 35.1624 30.3668 37.93C30.8388 40.8326 32.3899 42.9252 35.2224 43.8703C37.2456 44.4778 39.3362 44.5453 41.4268 44.0053C44.3267 43.2628 46.4173 41.3727 47.9684 38.9426C48.8326 37.591 49.567 36.1528 50.3102 34.6974C50.495 34.3356 50.6803 33.9727 50.8683 33.6098C51.3404 32.5973 52.0148 31.9223 53.0264 31.3822C55.3867 30.1672 57.6122 28.8171 59.2982 26.7245C62.6027 22.8769 62.4004 17.6116 58.7587 14.2365C56.3309 11.9414 53.431 11.1989 50.2614 12.2789C47.1591 13.2914 45.2708 15.519 44.6639 18.7592C44.529 19.3667 44.2593 19.7042 43.6523 19.8392C41.5617 20.4468 40.685 22.6744 41.764 24.4969C42.0338 24.9695 42.5733 25.3745 43.0454 25.712C43.45 26.0495 43.5849 26.5895 43.3151 27.062C43.0454 27.5346 42.5058 27.6696 42.0338 27.3996C41.6966 27.1971 41.2919 26.927 41.0222 26.657C39.6059 25.3745 39.1339 23.7544 39.3362 21.9318C39.4036 21.1218 38.9316 20.5143 38.1223 20.4468C37.3805 20.3793 36.7735 20.9193 36.6386 21.6618C36.3014 23.9569 36.8409 25.982 38.3246 27.7371C39.9431 29.7622 42.1012 30.7072 44.7313 30.7072C45.4057 30.7072 45.8778 31.1122 45.8778 31.6522C45.8778 32.2598 45.4732 32.6648 44.7313 32.6648C42.371 32.7323 40.2803 32.0573 38.4595 30.6397C38.2572 30.7072 38.0548 30.5722 37.8525 30.4372Z" fill="#2070B4"/>
<path d="M28.2087 33.9473C26.5227 34.6224 24.9042 34.4199 23.4205 33.5423C21.4648 32.3948 20.9253 30.2347 22.1392 28.5471C22.7461 27.6696 23.6228 27.2646 24.6344 27.2646C25.2414 27.2646 25.5111 26.9945 25.7809 26.4545C26.725 24.3619 28.2087 22.8094 30.5691 22.4043C31.8504 22.2018 33.1318 22.4718 34.4131 23.0119C34.4131 22.8337 34.4319 22.6744 34.4497 22.5239C34.4655 22.3893 34.4806 22.2618 34.4806 22.1343C34.548 20.7168 35.0875 19.5692 36.5037 18.9617C37.8525 18.3542 39.0664 18.6242 40.1455 19.5692C40.2129 19.6367 40.2803 19.6367 40.2129 19.5692C40.4981 19.3876 40.7832 19.2159 41.0646 19.0466C41.5151 18.7753 41.9558 18.51 42.371 18.2192C42.5733 18.0842 42.7082 17.7466 42.7756 17.5441C43.9895 13.6965 46.5522 11.1989 50.4637 10.2538C56.0611 8.97126 61.8609 12.6839 63.1423 18.3542C64.0864 22.3368 62.8725 25.7795 60.1075 28.6821C58.3541 30.5722 56.196 31.9223 53.9705 33.0698C53.2287 33.4748 52.6892 34.0148 52.352 34.7574C52.0278 35.3454 51.7159 35.9457 51.4033 36.5471C50.6753 37.9478 49.9439 39.3551 49.0474 40.6301C47.0917 43.5328 44.3941 45.5578 40.8199 46.1654C38.5269 46.5704 36.234 46.5029 34.0759 45.6254C30.5691 44.3428 28.7482 41.6427 28.2761 37.9975C28.1333 37.0922 28.1585 36.1869 28.1857 35.2104C28.197 34.8035 28.2087 34.3842 28.2087 33.9473ZM37.8525 30.4372C37.7594 30.9031 37.6949 31.3404 37.6326 31.7623C37.5596 32.2573 37.4897 32.7311 37.3805 33.2048C37.2456 33.8123 36.7735 34.0824 36.234 34.0148C35.6945 33.9473 35.4247 33.4748 35.4922 32.7998C35.4922 32.7323 35.509 32.6479 35.5259 32.5635C35.5427 32.4792 35.5596 32.3948 35.5596 32.3273C35.8968 30.5047 35.9642 28.6821 35.2898 26.927C34.0759 23.9569 30.5016 23.4169 28.4785 25.9145C27.9534 26.5568 27.6303 27.3506 27.3343 28.0775C27.2882 28.191 27.2426 28.3028 27.1971 28.4121C26.9274 29.0196 26.5902 29.2896 25.9832 29.2221C25.646 29.1546 25.3088 29.1546 24.9042 29.1546C24.2972 29.1546 23.8252 29.4246 23.6228 30.0322C23.4205 30.6397 23.6228 31.1122 24.2298 31.5847C25.7809 32.7998 27.7366 32.5298 28.7482 30.7747C29.0249 30.2669 29.2701 29.696 29.5053 29.1483C29.6141 28.8951 29.7207 28.6468 29.8273 28.4121C30.097 27.8721 30.5691 27.6021 31.1086 27.8046C31.5807 27.9396 31.8504 28.4796 31.7156 29.0196C31.6818 29.1546 31.6313 29.3065 31.5807 29.4584C31.5301 29.6103 31.4795 29.7622 31.4458 29.8972C30.5691 32.5298 29.9621 35.1624 30.3668 37.93C30.8388 40.8326 32.3899 42.9252 35.2224 43.8703C37.2456 44.4778 39.3362 44.5453 41.4268 44.0053C44.3267 43.2628 46.4173 41.3727 47.9684 38.9426C48.8326 37.591 49.567 36.1528 50.3102 34.6974C50.495 34.3356 50.6803 33.9727 50.8683 33.6098C51.3404 32.5973 52.0148 31.9223 53.0264 31.3822C55.3867 30.1672 57.6122 28.8171 59.2982 26.7245C62.6027 22.8769 62.4004 17.6116 58.7587 14.2365C56.3309 11.9414 53.431 11.1989 50.2614 12.2789C47.1591 13.2914 45.2708 15.519 44.6639 18.7592C44.529 19.3667 44.2593 19.7042 43.6523 19.8392C41.5617 20.4468 40.685 22.6744 41.764 24.4969C42.0338 24.9695 42.5733 25.3745 43.0454 25.712C43.45 26.0495 43.5849 26.5895 43.3151 27.062C43.0454 27.5346 42.5058 27.6696 42.0338 27.3996C41.6966 27.1971 41.2919 26.927 41.0222 26.657C39.6059 25.3745 39.1339 23.7544 39.3362 21.9318C39.4036 21.1218 38.9316 20.5143 38.1223 20.4468C37.3805 20.3793 36.7735 20.9193 36.6386 21.6618C36.3014 23.9569 36.8409 25.982 38.3246 27.7371C39.9431 29.7622 42.1012 30.7072 44.7313 30.7072C45.4057 30.7072 45.8778 31.1122 45.8778 31.6522C45.8778 32.2598 45.4732 32.6648 44.7313 32.6648C42.371 32.7323 40.2803 32.0573 38.4595 30.6397C38.2572 30.7072 38.0548 30.5722 37.8525 30.4372Z" stroke="#2070B4"/>
<path d="M11.9557 37.4575C11.4837 39.9551 12.3604 42.7902 13.7092 45.6254C14.4915 47.1914 15.1528 48.7979 15.8179 50.4135C16.0128 50.887 16.208 51.3613 16.4067 51.8356C16.8788 53.0507 17.6881 53.9957 18.6997 54.8058C19.7788 55.6496 20.8747 56.5103 21.9707 57.371C23.0665 58.2316 24.1623 59.0922 25.2413 59.936C25.7808 60.341 25.9831 60.746 25.9831 61.421V68.7789C25.9831 69.1164 25.7808 69.5889 25.511 69.8589C25.3762 69.9939 24.7692 70.0614 24.6343 69.9264C24.3646 69.7239 24.0948 69.2514 24.0948 68.9139C24.0274 66.6863 24.0274 64.4587 24.0948 62.2311C24.0948 61.6911 23.9599 61.3535 23.4879 61.016C21.4647 59.4635 19.5089 57.9109 17.4858 56.2908C16.2719 55.3458 15.3277 54.1307 14.7208 52.7132C13.1696 49.203 11.686 45.7604 10.2023 42.3177C10.0674 41.9802 10 41.6427 10 41.2377V32.2598C10 31.3147 10.4046 30.7072 11.1465 30.2347C12.765 29.1546 14.8556 29.4922 16.137 30.9097C17.0137 31.9898 17.4183 33.2723 17.6206 34.5549C17.823 35.6349 17.8904 36.6475 17.9578 37.7275C18.0253 38.4025 17.6206 38.8751 17.0137 38.9426C16.4742 38.9426 16.0695 38.5375 16.0021 37.93C15.932 37.462 15.8699 36.9859 15.8076 36.5073C15.6901 35.6052 15.5714 34.6944 15.3951 33.8123C15.2603 33.2723 14.9905 32.7323 14.6533 32.2598C14.2487 31.7198 13.6417 31.5172 12.9673 31.5847C12.1581 31.7198 12.0232 31.9223 12.0232 32.7323C11.9557 34.1499 11.9557 35.4999 11.9557 37.4575Z" fill="#2070B4"/>
<path d="M11.9557 37.4575C11.4837 39.9551 12.3604 42.7902 13.7092 45.6254C14.4915 47.1914 15.1528 48.7979 15.8179 50.4135C16.0128 50.887 16.208 51.3613 16.4067 51.8356C16.8788 53.0507 17.6881 53.9957 18.6997 54.8058C19.7788 55.6496 20.8747 56.5103 21.9707 57.371C23.0665 58.2316 24.1623 59.0922 25.2413 59.936C25.7808 60.341 25.9831 60.746 25.9831 61.421V68.7789C25.9831 69.1164 25.7808 69.5889 25.511 69.8589C25.3762 69.9939 24.7692 70.0614 24.6343 69.9264C24.3646 69.7239 24.0948 69.2514 24.0948 68.9139C24.0274 66.6863 24.0274 64.4587 24.0948 62.2311C24.0948 61.6911 23.9599 61.3535 23.4879 61.016C21.4647 59.4635 19.5089 57.9109 17.4858 56.2908C16.2719 55.3458 15.3277 54.1307 14.7208 52.7132C13.1696 49.203 11.686 45.7604 10.2023 42.3177C10.0674 41.9802 10 41.6427 10 41.2377V32.2598C10 31.3147 10.4046 30.7072 11.1465 30.2347C12.765 29.1546 14.8556 29.4922 16.137 30.9097C17.0137 31.9898 17.4183 33.2723 17.6206 34.5549C17.823 35.6349 17.8904 36.6475 17.9578 37.7275C18.0253 38.4025 17.6206 38.8751 17.0137 38.9426C16.4742 38.9426 16.0695 38.5375 16.0021 37.93C15.932 37.462 15.8699 36.9859 15.8076 36.5073C15.6901 35.6052 15.5714 34.6944 15.3951 33.8123C15.2603 33.2723 14.9905 32.7323 14.6533 32.2598C14.2487 31.7198 13.6417 31.5172 12.9673 31.5847C12.1581 31.7198 12.0232 31.9223 12.0232 32.7323C11.9557 34.1499 11.9557 35.4999 11.9557 37.4575Z" stroke="#2070B4"/>
<path d="M69.9534 36.85C69.9534 37.1027 69.9455 37.3476 69.9379 37.5874C69.9231 38.052 69.9089 38.4973 69.9534 38.9426C70.1557 40.9002 69.6836 42.7228 68.8069 44.5453C67.9482 46.4076 67.1569 48.3037 66.3616 50.2097C66.0326 50.9981 65.7029 51.7881 65.3675 52.5782C64.7605 54.1308 63.7489 55.3458 62.4676 56.3583C60.4444 57.9784 58.4212 59.531 56.3981 61.0836C56.0609 61.3536 55.926 61.6236 55.926 62.0286V68.5089V68.9139C55.926 69.5889 55.5213 69.9939 54.9144 69.9939C54.3749 69.9939 53.9702 69.5889 53.9028 68.9139V62.7036C53.9028 61.3285 53.8029 60.8366 53.9754 60.4744C54.15 60.1077 54.604 59.874 55.7237 58.991C57.4771 57.5734 59.2979 56.1558 61.1188 54.7383C62.1978 53.9282 62.9397 52.9157 63.4792 51.6331C63.9059 50.6366 64.3326 49.6462 64.7574 48.6601C65.7427 46.3731 66.718 44.1092 67.6604 41.8452C67.7953 41.5752 67.8627 41.2377 67.8627 40.9002V32.5973C67.8627 32.0573 67.6604 31.7873 67.1883 31.6523C66.3116 31.3823 65.4349 31.6523 64.9628 32.5973C64.5582 33.5424 64.2884 34.4874 64.0861 35.4999C63.9359 36.1015 63.8972 36.7403 63.8596 37.361C63.8466 37.5761 63.8337 37.7891 63.8164 37.9975C63.7489 38.6051 63.3443 39.0101 62.8048 38.9426C62.2653 38.9426 61.7932 38.4701 61.8606 37.8625C61.9349 37.3794 61.9989 36.8963 62.0626 36.4159C62.2302 35.1514 62.3952 33.9064 62.7373 32.7323C63.142 31.1122 64.221 29.9647 65.9744 29.6947C67.1209 29.4922 68.1325 29.7622 69.0092 30.5047C69.5487 30.9097 69.8185 31.5173 69.8185 32.2598C69.9533 33.7449 69.9534 35.2974 69.9534 36.85Z" fill="#2070B4"/>
<path d="M69.9534 36.85C69.9534 37.1027 69.9455 37.3476 69.9379 37.5874C69.9231 38.052 69.9089 38.4973 69.9534 38.9426C70.1557 40.9002 69.6836 42.7228 68.8069 44.5453C67.9482 46.4076 67.1569 48.3037 66.3616 50.2097C66.0326 50.9981 65.7029 51.7881 65.3675 52.5782C64.7605 54.1308 63.7489 55.3458 62.4676 56.3583C60.4444 57.9784 58.4212 59.531 56.3981 61.0836C56.0609 61.3536 55.926 61.6236 55.926 62.0286V68.5089V68.9139C55.926 69.5889 55.5213 69.9939 54.9144 69.9939C54.3749 69.9939 53.9702 69.5889 53.9028 68.9139V62.7036C53.9028 61.3285 53.8029 60.8366 53.9754 60.4744C54.15 60.1077 54.604 59.874 55.7237 58.991C57.4771 57.5734 59.2979 56.1558 61.1188 54.7383C62.1978 53.9282 62.9397 52.9157 63.4792 51.6331C63.9059 50.6366 64.3326 49.6462 64.7574 48.6601C65.7427 46.3731 66.718 44.1092 67.6604 41.8452C67.7953 41.5752 67.8627 41.2377 67.8627 40.9002V32.5973C67.8627 32.0573 67.6604 31.7873 67.1883 31.6523C66.3116 31.3823 65.4349 31.6523 64.9628 32.5973C64.5582 33.5424 64.2884 34.4874 64.0861 35.4999C63.9359 36.1015 63.8972 36.7403 63.8596 37.361C63.8466 37.5761 63.8337 37.7891 63.8164 37.9975C63.7489 38.6051 63.3443 39.0101 62.8048 38.9426C62.2653 38.9426 61.7932 38.4701 61.8606 37.8625C61.9349 37.3794 61.9989 36.8963 62.0626 36.4159C62.2302 35.1514 62.3952 33.9064 62.7373 32.7323C63.142 31.1122 64.221 29.9647 65.9744 29.6947C67.1209 29.4922 68.1325 29.7622 69.0092 30.5047C69.5487 30.9097 69.8185 31.5173 69.8185 32.2598C69.9533 33.7449 69.9534 35.2974 69.9534 36.85Z" stroke="#2070B4"/>
<path d="M61.861 43.1953C60.6471 42.3852 59.5006 42.2502 58.4216 42.7903C57.6797 43.1278 57.0053 43.6678 56.3984 44.2078C55.724 44.8491 55.0665 45.5072 54.4089 46.1654C53.7514 46.8236 53.0939 47.4817 52.4195 48.123C51.88 48.663 51.273 49.1355 50.3963 49.4055C48.3057 50.0131 46.6871 51.2956 45.4732 53.1182C44.4616 54.6033 43.9896 56.2908 43.9896 58.1134V68.5764V69.1839C43.8547 69.6564 43.5175 69.9939 43.0454 69.9939C42.5733 69.9939 42.2361 69.6564 42.1013 69.2514C42.0542 69.1102 42.0728 68.969 42.0883 68.8507C42.0951 68.7993 42.1013 68.7523 42.1013 68.7114V58.2484C42.1013 53.3207 45.2709 49.0005 49.9242 47.448C50.2614 47.3129 50.666 47.1104 50.9358 46.8404C51.542 46.2626 52.1358 45.66 52.7331 45.0539C53.5313 44.2439 54.3358 43.4275 55.1845 42.6552C56.6007 41.3052 58.2867 40.3601 60.3773 40.4951C61.861 40.6302 63.0749 41.3052 64.0865 42.3852C64.4911 42.7903 64.4237 43.3303 64.019 43.8028C63.7469 44.1206 63.4442 44.4079 63.152 44.6852C63.0099 44.8202 62.8702 44.9528 62.7377 45.0854L62.7374 45.0856C60.3771 47.4481 58.0168 49.8106 55.5891 52.1732L55.5891 52.1732C55.4542 52.3082 55.3194 52.4432 55.117 52.5782C54.645 52.9157 54.1729 52.8482 53.8357 52.4432C53.4311 52.0382 53.4311 51.5656 53.7683 51.1606C53.8357 51.0931 53.9031 51.0087 53.9706 50.9244C54.038 50.84 54.1055 50.7556 54.1729 50.6881L61.254 43.6003C61.2749 43.5898 61.2974 43.5794 61.3215 43.5682C61.4531 43.5071 61.6329 43.4235 61.861 43.1953Z" fill="#2070B4"/>
<path d="M61.861 43.1953C60.6471 42.3852 59.5006 42.2502 58.4216 42.7903C57.6797 43.1278 57.0053 43.6678 56.3984 44.2078C55.724 44.8491 55.0665 45.5072 54.4089 46.1654C53.7514 46.8236 53.0939 47.4817 52.4195 48.123C51.88 48.663 51.273 49.1355 50.3963 49.4055C48.3057 50.0131 46.6871 51.2956 45.4732 53.1182C44.4616 54.6033 43.9896 56.2908 43.9896 58.1134V68.5764V69.1839C43.8547 69.6564 43.5175 69.9939 43.0454 69.9939C42.5733 69.9939 42.2361 69.6564 42.1013 69.2514C42.0542 69.1102 42.0728 68.969 42.0883 68.8507C42.0951 68.7993 42.1013 68.7523 42.1013 68.7114V58.2484C42.1013 53.3207 45.2709 49.0005 49.9242 47.448C50.2614 47.3129 50.666 47.1104 50.9358 46.8404C51.542 46.2626 52.1358 45.66 52.7331 45.0539C53.5313 44.2439 54.3358 43.4275 55.1845 42.6552C56.6007 41.3052 58.2867 40.3601 60.3773 40.4951C61.861 40.6302 63.0749 41.3052 64.0865 42.3852C64.4911 42.7903 64.4237 43.3303 64.019 43.8028C63.7469 44.1206 63.4442 44.4079 63.152 44.6852C63.0099 44.8202 62.8702 44.9528 62.7377 45.0854L62.7374 45.0856C60.3771 47.4481 58.0168 49.8106 55.5891 52.1732L55.5891 52.1732C55.4542 52.3082 55.3194 52.4432 55.117 52.5782C54.645 52.9157 54.1729 52.8482 53.8357 52.4432C53.4311 52.0382 53.4311 51.5656 53.7683 51.1606C53.8357 51.0931 53.9031 51.0087 53.9706 50.9244C54.038 50.84 54.1055 50.7556 54.1729 50.6881L61.254 43.6003C61.2749 43.5898 61.2974 43.5794 61.3215 43.5682C61.4531 43.5071 61.6329 43.4235 61.861 43.1953Z" stroke="#2070B4"/>
<path d="M18.0253 43.2627C18.1435 43.3515 18.2618 43.4274 18.3687 43.4959C18.5057 43.5836 18.6239 43.6595 18.6997 43.7353C21.06 46.0979 23.4204 48.4605 25.8482 50.8231L26.2529 51.2281C26.5901 51.6331 26.5226 52.1731 26.1854 52.5107C25.8482 52.8482 25.3087 52.9157 24.9041 52.5782C24.8366 52.5444 24.7861 52.4938 24.7355 52.4431C24.6849 52.3925 24.6343 52.3419 24.5669 52.3081C21.8019 49.5405 19.0369 46.7729 16.2719 44.0728C15.53 43.3303 15.53 42.8577 16.3393 42.1152C18.2276 40.3601 20.7228 40.0226 22.9483 41.3052C23.8251 41.7777 24.6343 42.4527 25.3762 43.1277C26.6575 44.3428 27.9388 45.6253 29.2202 46.9079C29.4225 47.1104 29.7597 47.3129 30.0295 47.3804C34.7502 48.8655 37.9873 53.2532 37.9873 58.1809V68.5088V68.9814C37.9199 69.5214 37.5152 69.9264 37.0432 69.9264C36.5036 69.9264 36.099 69.5214 36.0316 68.9814V68.3738V58.1809C36.0316 54.1982 33.6712 50.6881 29.8271 49.4055C28.8156 49.068 28.0737 48.528 27.3319 47.7854L23.8925 44.3428C23.0832 43.5328 22.2065 42.7902 20.9926 42.5202C19.981 42.3177 19.1043 42.5202 18.0253 43.2627Z" fill="#2070B4"/>
<path d="M18.0253 43.2627C18.1435 43.3515 18.2618 43.4274 18.3687 43.4959C18.5057 43.5836 18.6239 43.6595 18.6997 43.7353C21.06 46.0979 23.4204 48.4605 25.8482 50.8231L26.2529 51.2281C26.5901 51.6331 26.5226 52.1731 26.1854 52.5107C25.8482 52.8482 25.3087 52.9157 24.9041 52.5782C24.8366 52.5444 24.7861 52.4938 24.7355 52.4431C24.6849 52.3925 24.6343 52.3419 24.5669 52.3081C21.8019 49.5405 19.0369 46.7729 16.2719 44.0728C15.53 43.3303 15.53 42.8577 16.3393 42.1152C18.2276 40.3601 20.7228 40.0226 22.9483 41.3052C23.8251 41.7777 24.6343 42.4527 25.3762 43.1277C26.6575 44.3428 27.9388 45.6253 29.2202 46.9079C29.4225 47.1104 29.7597 47.3129 30.0295 47.3804C34.7502 48.8655 37.9873 53.2532 37.9873 58.1809V68.5088V68.9814C37.9199 69.5214 37.5152 69.9264 37.0432 69.9264C36.5036 69.9264 36.099 69.5214 36.0316 68.9814V68.3738V58.1809C36.0316 54.1982 33.6712 50.6881 29.8271 49.4055C28.8156 49.068 28.0737 48.528 27.3319 47.7854L23.8925 44.3428C23.0832 43.5328 22.2065 42.7902 20.9926 42.5202C19.981 42.3177 19.1043 42.5202 18.0253 43.2627Z" stroke="#2070B4"/>
</svg>
