<svg width="80" height="81" viewBox="0 0 80 81" fill="none" xmlns="http://www.w3.org/2000/svg">
<path d="M36.7669 28.5438L38.9681 28.2003L37.8219 26.29L30.3959 13.9142C29.9573 13.1829 29.3368 12.5777 28.5948 12.1575C27.8528 11.7372 27.0146 11.5164 26.1619 11.5164H26.1619H14.2219C11.6161 11.5164 10.0928 14.4481 11.5844 16.5809L11.5847 16.5814L23.5376 33.6572L24.5283 35.0725L25.7906 33.893C28.7694 31.1097 32.5557 29.201 36.7669 28.5438ZM42.1781 26.29L41.0319 28.2003L43.2331 28.5438C47.4443 29.201 51.2307 31.1097 54.2096 33.8921L55.4719 35.0711L56.4624 33.6562L68.4152 16.5815L68.4156 16.5809C69.9072 14.4481 68.3839 11.5164 65.7781 11.5164H53.8381C52.1038 11.5164 50.496 12.4266 49.604 13.9143L42.1781 26.29ZM44.8173 49.993L44.2523 50.5437L44.3858 51.3213L45.2575 56.3959L40.6977 53.9998L39.9999 53.6332L39.3021 53.9999L34.7436 56.3958L35.6152 51.3213L35.7488 50.5437L35.1837 49.993L31.4954 46.399L36.5929 45.6562L37.3733 45.5425L37.722 44.8353L40.0005 40.214L42.2791 44.8353L42.6278 45.5425L43.4081 45.6562L48.5057 46.399L44.8173 49.993ZM40 28.7039C28.7301 28.7039 19.5937 37.8403 19.5937 49.1101C19.5937 60.3799 28.7301 69.5164 40 69.5164C51.2699 69.5164 60.4063 60.3799 60.4063 49.1101C60.4063 37.8403 51.2699 28.7039 40 28.7039Z" stroke="#2070B4" stroke-width="3"/>
</svg>
