<svg width="80" height="81" viewBox="0 0 80 81" fill="none" xmlns="http://www.w3.org/2000/svg">
<mask id="mask0_528_1552" style="mask-type:alpha" maskUnits="userSpaceOnUse" x="0" y="0" width="80" height="81">
<rect y="0.0163574" width="80" height="80" fill="#D9D9D9"/>
</mask>
<g mask="url(#mask0_528_1552)">
<path d="M10.415 42.988C9.27665 41.1567 8.4234 39.276 7.85523 37.3458C7.28508 35.4156 7 33.5102 7 31.6295C7 26.9772 8.6085 23.0425 11.8255 19.8255C15.0425 16.6085 18.9772 15 23.6295 15C26.6485 15 29.5309 15.779 32.2768 17.337C35.0246 18.897 37.4873 21.1371 39.665 24.0571C41.8427 21.1371 44.3054 18.897 47.0532 17.337C49.7991 15.779 52.6815 15 55.7005 15C60.3528 15 64.2875 16.6085 67.5045 19.8255C70.7215 23.0425 72.33 26.9772 72.33 31.6295C72.33 33.4112 72.0449 35.2543 71.4748 37.1587C70.9066 39.0652 70.0534 41.0083 68.915 42.988C68.6181 42.5425 68.2598 42.1585 67.8401 41.8358C67.4184 41.5151 66.9848 41.2557 66.5394 41.0578C67.4797 39.375 68.1855 37.7536 68.6567 36.1936C69.1259 34.6356 69.3605 33.1142 69.3605 31.6295C69.3605 27.8185 68.037 24.5896 65.3902 21.9428C62.7413 19.294 59.5115 17.9695 55.7005 17.9695C52.632 17.9695 49.8486 18.8852 47.3502 20.7164C44.8498 22.5476 42.2881 25.1954 39.665 28.6599C37.0419 25.1954 34.4812 22.5476 31.9828 20.7164C29.4824 18.8852 26.698 17.9695 23.6295 17.9695C19.8185 17.9695 16.5887 19.294 13.9398 21.9428C11.293 24.5896 9.96955 27.8185 9.96955 31.6295C9.96955 33.1637 10.2041 34.7227 10.6733 36.3065C11.1445 37.8902 11.8255 39.4987 12.7164 41.132C12.2709 41.3795 11.8503 41.6517 11.4543 41.9486C11.0584 42.2456 10.7119 42.592 10.415 42.988ZM7 65.6307V63.0324C7 61.2012 7.9651 59.6917 9.89531 58.5038C11.8255 57.316 14.3496 56.7221 17.4676 56.7221C18.0121 56.7221 18.5436 56.734 19.0623 56.7577C19.583 56.7835 20.0907 56.8458 20.5857 56.9448C20.1402 57.7367 19.8067 58.5533 19.5849 59.3947C19.3612 60.2361 19.2494 61.1269 19.2494 62.0673V65.6307H7ZM24.8173 65.6307V62.29C24.8173 59.8154 26.1902 57.8486 28.936 56.3895C31.6839 54.9285 35.2602 54.198 39.665 54.198C44.1193 54.198 47.7075 54.9285 50.4296 56.3895C53.1517 57.8486 54.5127 59.8154 54.5127 62.29V65.6307H24.8173ZM60.0806 65.6307V62.0673C60.0806 61.1269 59.9816 60.2361 59.7837 59.3947C59.5857 58.5533 59.2888 57.7367 58.8928 56.9448C59.3382 56.8458 59.8203 56.7835 60.339 56.7577C60.8596 56.734 61.3922 56.7221 61.9366 56.7221C65.0546 56.7221 67.5669 57.316 69.4733 58.5038C71.3778 59.6917 72.33 61.2012 72.33 63.0324V65.6307H60.0806ZM39.665 57.1675C36.2995 57.1675 33.5161 57.6258 31.3146 58.5424C29.1112 59.4571 27.96 60.6073 27.8611 61.993V62.6612H51.4689V61.993C51.37 60.6073 50.2316 59.4571 48.054 58.5424C45.8763 57.6258 43.08 57.1675 39.665 57.1675ZM17.4676 53.901C16.2798 53.901 15.2781 53.4804 14.4625 52.639C13.6449 51.7976 13.236 50.8078 13.236 49.6694C13.236 48.5311 13.6449 47.5541 14.4625 46.7385C15.2781 45.9209 16.2798 45.5121 17.4676 45.5121C18.606 45.5121 19.5958 45.9209 20.4372 46.7385C21.2786 47.5541 21.6993 48.5311 21.6993 49.6694C21.6993 50.8078 21.2786 51.7976 20.4372 52.639C19.5958 53.4804 18.606 53.901 17.4676 53.901ZM61.9366 53.901C60.7983 53.901 59.8084 53.4804 58.967 52.639C58.1257 51.7976 57.705 50.8078 57.705 49.6694C57.705 48.5311 58.1257 47.5541 58.967 46.7385C59.8084 45.9209 60.7983 45.5121 61.9366 45.5121C63.1244 45.5121 64.1271 45.9209 64.9447 46.7385C65.7604 47.5541 66.1682 48.5311 66.1682 49.6694C66.1682 50.8078 65.7604 51.7976 64.9447 52.639C64.1271 53.4804 63.1244 53.901 61.9366 53.901ZM39.665 51.9708C37.8833 51.9708 36.349 51.3393 35.0622 50.0763C33.7754 48.8152 33.132 47.2938 33.132 45.5121C33.132 43.6314 33.7635 42.0723 35.0266 40.835C36.2876 39.5977 37.8338 38.9791 39.665 38.9791C41.4962 38.9791 43.0424 39.5977 44.3034 40.835C45.5665 42.0723 46.198 43.6066 46.198 45.4378C46.198 47.2691 45.5665 48.8152 44.3034 50.0763C43.0424 51.3393 41.4962 51.9708 39.665 51.9708ZM39.665 41.9486C38.7246 41.9486 37.8961 42.2822 37.1795 42.9494C36.4609 43.6185 36.1015 44.4727 36.1015 45.5121C36.1015 46.4524 36.4609 47.2691 37.1795 47.9619C37.8961 48.6548 38.7246 49.0013 39.665 49.0013C40.6548 49.0013 41.4962 48.6548 42.1891 47.9619C42.882 47.2691 43.2285 46.4277 43.2285 45.4378C43.2285 44.4975 42.882 43.6809 42.1891 42.988C41.4962 42.2951 40.6548 41.9486 39.665 41.9486Z" fill="#2070B4"/>
</g>
</svg>
